<?xml version="1.0" standalone="no"?>
<!DOCTYPE svg PUBLIC "-//W3C//DTD SVG 20010904//EN"
 "http://www.w3.org/TR/2001/REC-SVG-20010904/DTD/svg10.dtd">
<svg version="1.0" xmlns="http://www.w3.org/2000/svg"
 width="230.000000pt" height="256.000000pt" viewBox="0 0 230.000000 256.000000"
 preserveAspectRatio="xMidYMid meet">

<g transform="translate(0.000000,256.000000) scale(0.100000,-0.100000)"
fill="#000000" stroke="none">
<path d="M974 2520 c-94 -24 -134 -42 -224 -98 -41 -26 -113 -67 -160 -90
-218 -107 -404 -350 -454 -594 -30 -144 -19 -276 36 -441 32 -95 32 -98 15
-125 -41 -63 -51 -97 -52 -177 0 -89 14 -125 69 -183 37 -40 78 -63 125 -71
30 -5 38 -14 67 -70 18 -34 45 -76 61 -93 74 -77 221 -145 363 -167 41 -7 82
-15 90 -17 9 -3 -20 -24 -74 -51 -111 -58 -167 -113 -239 -237 -32 -54 -57
-99 -57 -102 0 -2 6 -4 13 -4 8 0 30 31 51 68 54 99 122 178 186 216 80 49 92
51 135 21 54 -36 109 -49 205 -49 72 0 94 4 140 26 30 15 56 26 58 24 6 -6
-144 -181 -210 -245 l-63 -61 161 0 162 0 66 86 c36 48 66 90 66 95 0 38 58
-30 126 -149 16 -29 44 -44 44 -24 0 4 -28 50 -61 102 -77 119 -189 232 -249
251 -64 20 -61 35 9 43 216 25 401 132 468 272 24 48 33 58 58 61 45 6 122 52
151 90 45 59 57 101 52 183 -5 80 -23 126 -66 173 l-26 27 37 108 c49 143 61
222 54 356 -7 136 -31 226 -98 365 -43 89 -63 117 -133 186 -231 231 -639 364
-902 295z m276 -751 c36 -11 75 -28 88 -37 22 -17 22 -18 8 -92 -20 -106 -50
-180 -102 -250 -49 -67 -119 -117 -176 -127 -70 -11 -44 -30 64 -46 68 -11
105 -21 110 -32 26 -46 243 19 367 109 36 27 53 33 76 29 28 -5 29 -4 14 12
-15 15 -13 21 27 82 24 35 44 71 44 79 0 8 4 14 9 14 4 0 11 -31 15 -69 8 -81
-6 -177 -35 -234 -11 -21 -19 -43 -17 -48 6 -17 119 82 161 141 23 32 46 59
51 59 15 1 -6 -182 -30 -259 -12 -41 -41 -147 -63 -234 -43 -168 -69 -224
-125 -274 -82 -71 -222 -129 -371 -152 -98 -16 -117 -25 -113 -53 2 -17 -5
-23 -37 -33 -50 -16 -148 -17 -197 -3 -33 9 -38 14 -38 39 0 33 5 30 -115 51
-215 36 -364 119 -428 237 -15 27 -38 96 -51 153 -14 57 -37 145 -51 194 l-27
90 18 83 c10 45 21 82 24 82 3 0 16 -21 30 -46 28 -54 58 -94 69 -94 5 0 11
46 14 103 3 56 10 113 15 127 9 24 11 23 37 -32 14 -31 52 -84 83 -118 l56
-62 -41 7 c-35 5 -43 3 -52 -13 -7 -14 -6 -25 6 -42 15 -21 15 -23 0 -31 -58
-33 -105 -101 -59 -86 125 41 161 48 224 43 37 -2 94 -16 128 -29 64 -26 85
-20 53 15 -24 28 -131 78 -166 78 -16 0 -26 4 -22 10 18 29 115 -3 176 -58 37
-33 49 -39 49 -26 0 25 -74 91 -118 105 -35 10 -40 16 -55 68 -18 61 -21 81
-11 81 4 0 38 -11 76 -25 107 -39 127 -34 112 23 -11 38 -154 99 -189 80 -17
-10 -18 -5 -12 103 3 63 14 148 25 189 10 41 22 88 26 103 4 15 17 32 29 37
12 5 96 7 187 5 129 -4 179 -10 230 -26z m-510 -623 c-11 -11 -45 17 -62 48
-8 15 -1 12 30 -10 25 -18 37 -33 32 -38z m1311 -41 c26 -56 25 -163 0 -214
-30 -58 -109 -121 -153 -121 -18 0 31 206 82 344 19 50 24 55 37 44 9 -7 24
-31 34 -53z m-1789 -32 c31 -67 57 -149 82 -265 8 -37 -6 -42 -52 -19 -49 25
-96 78 -112 127 -22 67 5 234 38 234 4 0 24 -35 44 -77z m697 -727 c48 -41
185 -48 282 -16 76 26 89 18 23 -12 -66 -30 -173 -36 -250 -13 -60 17 -84 30
-84 46 0 13 11 11 29 -5z"/>
<path d="M1390 1124 c-45 -19 -100 -73 -100 -97 0 -15 10 -10 49 25 48 44 104
68 155 68 14 0 26 -4 26 -10 0 -5 -12 -10 -27 -10 -16 0 -55 -13 -88 -29 -108
-51 -131 -107 -27 -65 33 13 90 26 128 29 66 6 98 0 227 -42 31 -10 19 24 -20
56 -20 16 -64 44 -98 60 -50 25 -75 31 -126 31 -35 -1 -80 -8 -99 -16z"/>
<path d="M538 839 c-11 -11 -25 -16 -35 -13 -14 5 -15 4 -4 -4 17 -12 57 3 65
24 7 19 -6 16 -26 -7z"/>
<path d="M584 804 c-4 -14 -2 -30 3 -35 5 -5 9 4 10 26 1 41 -4 45 -13 9z"/>
<path d="M530 762 c19 -10 37 -16 40 -14 9 7 -34 32 -54 32 -16 0 -12 -5 14
-18z"/>
<path d="M1196 740 c-81 -26 -151 -33 -211 -21 -62 12 -76 1 -49 -36 57 -78
195 -100 300 -47 71 36 88 59 71 94 -16 32 -38 34 -111 10z m99 -20 c24 -76
-188 -128 -292 -72 -24 12 -43 24 -43 26 0 3 -2 11 -5 19 -5 11 8 13 72 10 56
-2 96 2 143 16 89 26 117 26 125 1z"/>
<path d="M1235 710 c-3 -5 1 -10 9 -10 9 0 16 5 16 10 0 6 -4 10 -9 10 -6 0
-13 -4 -16 -10z"/>
<path d="M1616 682 c5 -27 2 -34 -18 -42 -17 -7 -18 -9 -4 -7 29 3 42 31 28
59 -11 21 -12 21 -6 -10z"/>
<path d="M1660 702 c0 -15 27 -45 36 -41 5 2 -1 14 -13 26 -13 12 -23 19 -23
15z"/>
<path d="M1644 614 c-10 -8 -13 -12 -6 -9 8 4 26 11 40 15 22 7 23 8 6 9 -11
1 -29 -6 -40 -15z"/>
<path d="M766 21 c-4 -7 -5 -15 -2 -18 9 -9 19 4 14 18 -4 11 -6 11 -12 0z"/>
</g>
</svg>
